<?xml version="1.0" encoding="UTF-8" standalone="no"?>
<!-- Created with Inkscape (http://www.inkscape.org/) -->

<svg
   width="512"
   height="512"
   viewBox="0 0 512 512"
   version="1.1"
   id="svg1"
   xmlns:xlink="http://www.w3.org/1999/xlink"
   xmlns="http://www.w3.org/2000/svg"
   xmlns:svg="http://www.w3.org/2000/svg">
  <defs
     id="defs1">
    <linearGradient
       id="linearGradient67">
      <stop
         style="stop-color:#e5621a;stop-opacity:1;"
         offset="0"
         id="stop67" />
      <stop
         style="stop-color:#701ae5;stop-opacity:1;"
         offset="0.50072992"
         id="stop70" />
      <stop
         style="stop-color:#e6199c;stop-opacity:1;"
         offset="1"
         id="stop71" />
    </linearGradient>
    <linearGradient
       xlink:href="#linearGradient67"
       id="linearGradient68"
       x1="400.29535"
       y1="680.83887"
       x2="679.70465"
       y2="1239.1611"
       gradientUnits="userSpaceOnUse"
       gradientTransform="translate(71.429845,-183.6799)" />
  </defs>
  <g
     id="layer4"
     style="fill:#ffffff"
     transform="matrix(0.78397214,0,0,0.78397214,-223.34471,-352.61329)">
    <rect
       style="display:inline;fill:#000000;fill-opacity:1;stroke:none;stroke-width:12.7556;stroke-linecap:round;stroke-linejoin:round;stroke-miterlimit:3.3;stroke-dasharray:102.044, 25.5111, 12.7556, 25.5111;stroke-dashoffset:0;stroke-opacity:0.967427"
       id="rect2"
       width="653.08447"
       height="653.08447"
       x="284.88858"
       y="449.77783"
       ry="126.30849"
       rx="0" />
    <path
       id="rect1"
       style="fill:none;fill-opacity:0.397394;stroke:url(#linearGradient68);stroke-width:10;stroke-linecap:round;stroke-linejoin:round;stroke-miterlimit:3.3;stroke-dasharray:240, 185;stroke-dashoffset:0;stroke-opacity:1"
       d="m 611.43083,502.15897 -48.5,75.34766 V 880.5066 h -33.66602 a 26.088544,30.347508 0 0 1 -18.44726,-8.8886 l -8.83008,-10.2715 a 9.7095852,11.294679 0 0 0 -13.73242,0 l -8.36328,9.7285 a 10.802445,12.565948 0 0 0 0,17.7715 l 16.89453,19.6523 a 31.354599,36.473248 0 0 0 22.17187,10.6836 h 54.25782 c 0,0 18.61832,-10e-5 19.26172,19.2617 6.74957,41.4811 0,98.2871 0,98.2871 h -0.76172 c -2.72054,0 -4.91016,2.1916 -4.91016,4.9121 v 8.9278 c 0,2.7205 2.18962,4.9101 4.91016,4.9101 h 39.42968 c 2.72054,0 4.91016,-2.1896 4.91016,-4.9101 v -8.9278 c 0,-2.7205 -2.18962,-4.9121 -4.91016,-4.9121 h -0.76172 c 0,0 -6.74957,-56.806 0,-98.2871 0.6434,-19.2618 19.26172,-19.2617 19.26172,-19.2617 h 7.39649 46.86133 a 31.354599,36.473248 0 0 0 22.17187,-10.6836 l 16.89453,-19.6523 a 10.802445,12.565948 0 0 0 0,-17.7715 l -8.36328,-9.7285 a 9.7095852,11.294679 0 0 0 -13.73047,0 l -8.83203,10.2715 a 26.088544,30.347508 0 0 1 -18.44726,8.8886 H 659.93083 V 577.50663 Z" />
  </g>
</svg>
